<svg xmlns="http://www.w3.org/2000/svg">
<!-- TRVR GDCHLD Design-Elemente. Farbe kommt aus CSS: color und die Variable deco-accent -->
<symbol id="af" viewBox="0 0 260 200"><g stroke="currentColor" fill="none" stroke-linecap="butt"><path d="M50 4 H4 V50" stroke-width="5"/><path d="M50 196 H4 V150" stroke-width="5"/><path d="M210 4 H256 V50" stroke-width="5"/><path d="M210 196 H256 V150" stroke-width="5"/></g><g style="fill:var(--deco-accent,currentColor)" stroke="none"><circle cx="130.0" cy="100.0" r="6"/></g></symbol>
<symbol id="cross" viewBox="0 0 200 200"><g stroke="currentColor" fill="none" stroke-linecap="butt"><line x1="100.0" y1="10.0" x2="100.0" y2="80.0" stroke-width="3"/><line x1="100.0" y1="120.0" x2="100.0" y2="190.0" stroke-width="3"/><line x1="10.0" y1="100.0" x2="80.0" y2="100.0" stroke-width="3"/><line x1="120.0" y1="100.0" x2="190.0" y2="100.0" stroke-width="3"/><circle cx="100" cy="100" r="40" stroke-width="2"/></g><g style="fill:var(--deco-accent,currentColor)" stroke="none"><circle cx="100" cy="100" r="5"/></g></symbol>
<symbol id="expo" viewBox="0 0 1000 120"><g stroke="currentColor" fill="none" stroke-linecap="butt"><line x1="50.0" y1="60.0" x2="950.0" y2="60.0" stroke-width="2.5"/><line x1="50.0" y1="60.0" x2="50.0" y2="34.0" stroke-width="3.5"/><line x1="100.0" y1="60.0" x2="100.0" y2="47.0" stroke-width="2"/><line x1="150.0" y1="60.0" x2="150.0" y2="47.0" stroke-width="2"/><line x1="200.0" y1="60.0" x2="200.0" y2="34.0" stroke-width="3.5"/><line x1="250.0" y1="60.0" x2="250.0" y2="47.0" stroke-width="2"/><line x1="300.0" y1="60.0" x2="300.0" y2="47.0" stroke-width="2"/><line x1="350.0" y1="60.0" x2="350.0" y2="34.0" stroke-width="3.5"/><line x1="400.0" y1="60.0" x2="400.0" y2="47.0" stroke-width="2"/><line x1="450.0" y1="60.0" x2="450.0" y2="47.0" stroke-width="2"/><line x1="500.0" y1="60.0" x2="500.0" y2="34.0" stroke-width="3.5"/><line x1="550.0" y1="60.0" x2="550.0" y2="47.0" stroke-width="2"/><line x1="600.0" y1="60.0" x2="600.0" y2="47.0" stroke-width="2"/><line x1="650.0" y1="60.0" x2="650.0" y2="34.0" stroke-width="3.5"/><line x1="700.0" y1="60.0" x2="700.0" y2="47.0" stroke-width="2"/><line x1="750.0" y1="60.0" x2="750.0" y2="47.0" stroke-width="2"/><line x1="800.0" y1="60.0" x2="800.0" y2="34.0" stroke-width="3.5"/><line x1="850.0" y1="60.0" x2="850.0" y2="47.0" stroke-width="2"/><line x1="900.0" y1="60.0" x2="900.0" y2="47.0" stroke-width="2"/><line x1="950.0" y1="60.0" x2="950.0" y2="34.0" stroke-width="3.5"/></g><g fill="currentColor" font-family="JetBrains Mono, ui-monospace, monospace"><text x="50.0" y="90.0" font-size="24" font-weight="500" text-anchor="middle" dominant-baseline="central">−3</text><text x="200.0" y="90.0" font-size="24" font-weight="500" text-anchor="middle" dominant-baseline="central">−2</text><text x="350.0" y="90.0" font-size="24" font-weight="500" text-anchor="middle" dominant-baseline="central">−1</text><text x="500.0" y="90.0" font-size="24" font-weight="500" text-anchor="middle" dominant-baseline="central">0</text><text x="650.0" y="90.0" font-size="24" font-weight="500" text-anchor="middle" dominant-baseline="central">+1</text><text x="800.0" y="90.0" font-size="24" font-weight="500" text-anchor="middle" dominant-baseline="central">+2</text><text x="950.0" y="90.0" font-size="24" font-weight="500" text-anchor="middle" dominant-baseline="central">+3</text></g><g style="fill:var(--deco-accent,currentColor)" stroke="none"><path d="M488 4 H512 L500 19.6 Z"/></g></symbol>
<symbol id="tilt" viewBox="0 0 110 560"><g stroke="currentColor" fill="none" stroke-linecap="butt"><line x1="70.0" y1="20.0" x2="70.0" y2="540.0" stroke-width="2.5"/><line x1="70.0" y1="28.0" x2="36.0" y2="28.0" stroke-width="3"/><line x1="70.0" y1="49.0" x2="54.0" y2="49.0" stroke-width="2"/><line x1="70.0" y1="70.0" x2="54.0" y2="70.0" stroke-width="2"/><line x1="70.0" y1="91.0" x2="54.0" y2="91.0" stroke-width="2"/><line x1="70.0" y1="112.0" x2="36.0" y2="112.0" stroke-width="3"/><line x1="70.0" y1="133.0" x2="54.0" y2="133.0" stroke-width="2"/><line x1="70.0" y1="154.0" x2="54.0" y2="154.0" stroke-width="2"/><line x1="70.0" y1="175.0" x2="54.0" y2="175.0" stroke-width="2"/><line x1="70.0" y1="196.0" x2="36.0" y2="196.0" stroke-width="3"/><line x1="70.0" y1="217.0" x2="54.0" y2="217.0" stroke-width="2"/><line x1="70.0" y1="238.0" x2="54.0" y2="238.0" stroke-width="2"/><line x1="70.0" y1="259.0" x2="54.0" y2="259.0" stroke-width="2"/><line x1="70.0" y1="280.0" x2="36.0" y2="280.0" stroke-width="3"/><line x1="70.0" y1="301.0" x2="54.0" y2="301.0" stroke-width="2"/><line x1="70.0" y1="322.0" x2="54.0" y2="322.0" stroke-width="2"/><line x1="70.0" y1="343.0" x2="54.0" y2="343.0" stroke-width="2"/><line x1="70.0" y1="364.0" x2="36.0" y2="364.0" stroke-width="3"/><line x1="70.0" y1="385.0" x2="54.0" y2="385.0" stroke-width="2"/><line x1="70.0" y1="406.0" x2="54.0" y2="406.0" stroke-width="2"/><line x1="70.0" y1="427.0" x2="54.0" y2="427.0" stroke-width="2"/><line x1="70.0" y1="448.0" x2="36.0" y2="448.0" stroke-width="3"/><line x1="70.0" y1="469.0" x2="54.0" y2="469.0" stroke-width="2"/><line x1="70.0" y1="490.0" x2="54.0" y2="490.0" stroke-width="2"/><line x1="70.0" y1="511.0" x2="54.0" y2="511.0" stroke-width="2"/><line x1="70.0" y1="532.0" x2="36.0" y2="532.0" stroke-width="3"/></g><g style="fill:var(--deco-accent,currentColor)" stroke="none"><path d="M78 280 l26 -14 v28 Z"/></g></symbol>
<symbol id="scale-h" viewBox="0 0 1600 60"><g stroke="currentColor" fill="none" stroke-linecap="butt"><line x1="0.0" y1="52.0" x2="1600.0" y2="52.0" stroke-width="2"/><line x1="0.0" y1="52.0" x2="0.0" y2="22.0" stroke-width="2.5"/><line x1="8.0" y1="52.0" x2="8.0" y2="42.0" stroke-width="1.5"/><line x1="16.0" y1="52.0" x2="16.0" y2="42.0" stroke-width="1.5"/><line x1="24.0" y1="52.0" x2="24.0" y2="42.0" stroke-width="1.5"/><line x1="32.0" y1="52.0" x2="32.0" y2="42.0" stroke-width="1.5"/><line x1="40.0" y1="52.0" x2="40.0" y2="32.0" stroke-width="1.5"/><line x1="48.0" y1="52.0" x2="48.0" y2="42.0" stroke-width="1.5"/><line x1="56.0" y1="52.0" x2="56.0" y2="42.0" stroke-width="1.5"/><line x1="64.0" y1="52.0" x2="64.0" y2="42.0" stroke-width="1.5"/><line x1="72.0" y1="52.0" x2="72.0" y2="42.0" stroke-width="1.5"/><line x1="80.0" y1="52.0" x2="80.0" y2="22.0" stroke-width="2.5"/><line x1="88.0" y1="52.0" x2="88.0" y2="42.0" stroke-width="1.5"/><line x1="96.0" y1="52.0" x2="96.0" y2="42.0" stroke-width="1.5"/><line x1="104.0" y1="52.0" x2="104.0" y2="42.0" stroke-width="1.5"/><line x1="112.0" y1="52.0" x2="112.0" y2="42.0" stroke-width="1.5"/><line x1="120.0" y1="52.0" x2="120.0" y2="32.0" stroke-width="1.5"/><line x1="128.0" y1="52.0" x2="128.0" y2="42.0" stroke-width="1.5"/><line x1="136.0" y1="52.0" x2="136.0" y2="42.0" stroke-width="1.5"/><line x1="144.0" y1="52.0" x2="144.0" y2="42.0" stroke-width="1.5"/><line x1="152.0" y1="52.0" x2="152.0" y2="42.0" stroke-width="1.5"/><line x1="160.0" y1="52.0" x2="160.0" y2="22.0" stroke-width="2.5"/><line x1="168.0" y1="52.0" x2="168.0" y2="42.0" stroke-width="1.5"/><line x1="176.0" y1="52.0" x2="176.0" y2="42.0" stroke-width="1.5"/><line x1="184.0" y1="52.0" x2="184.0" y2="42.0" stroke-width="1.5"/><line x1="192.0" y1="52.0" x2="192.0" y2="42.0" stroke-width="1.5"/><line x1="200.0" y1="52.0" x2="200.0" y2="32.0" stroke-width="1.5"/><line x1="208.0" y1="52.0" x2="208.0" y2="42.0" stroke-width="1.5"/><line x1="216.0" y1="52.0" x2="216.0" y2="42.0" stroke-width="1.5"/><line x1="224.0" y1="52.0" x2="224.0" y2="42.0" stroke-width="1.5"/><line x1="232.0" y1="52.0" x2="232.0" y2="42.0" stroke-width="1.5"/><line x1="240.0" y1="52.0" x2="240.0" y2="22.0" stroke-width="2.5"/><line x1="248.0" y1="52.0" x2="248.0" y2="42.0" stroke-width="1.5"/><line x1="256.0" y1="52.0" x2="256.0" y2="42.0" stroke-width="1.5"/><line x1="264.0" y1="52.0" x2="264.0" y2="42.0" stroke-width="1.5"/><line x1="272.0" y1="52.0" x2="272.0" y2="42.0" stroke-width="1.5"/><line x1="280.0" y1="52.0" x2="280.0" y2="32.0" stroke-width="1.5"/><line x1="288.0" y1="52.0" x2="288.0" y2="42.0" stroke-width="1.5"/><line x1="296.0" y1="52.0" x2="296.0" y2="42.0" stroke-width="1.5"/><line x1="304.0" y1="52.0" x2="304.0" y2="42.0" stroke-width="1.5"/><line x1="312.0" y1="52.0" x2="312.0" y2="42.0" stroke-width="1.5"/><line x1="320.0" y1="52.0" x2="320.0" y2="22.0" stroke-width="2.5"/><line x1="328.0" y1="52.0" x2="328.0" y2="42.0" stroke-width="1.5"/><line x1="336.0" y1="52.0" x2="336.0" y2="42.0" stroke-width="1.5"/><line x1="344.0" y1="52.0" x2="344.0" y2="42.0" stroke-width="1.5"/><line x1="352.0" y1="52.0" x2="352.0" y2="42.0" stroke-width="1.5"/><line x1="360.0" y1="52.0" x2="360.0" y2="32.0" stroke-width="1.5"/><line x1="368.0" y1="52.0" x2="368.0" y2="42.0" stroke-width="1.5"/><line x1="376.0" y1="52.0" x2="376.0" y2="42.0" stroke-width="1.5"/><line x1="384.0" y1="52.0" x2="384.0" y2="42.0" stroke-width="1.5"/><line x1="392.0" y1="52.0" x2="392.0" y2="42.0" stroke-width="1.5"/><line x1="400.0" y1="52.0" x2="400.0" y2="22.0" stroke-width="2.5"/><line x1="408.0" y1="52.0" x2="408.0" y2="42.0" stroke-width="1.5"/><line x1="416.0" y1="52.0" x2="416.0" y2="42.0" stroke-width="1.5"/><line x1="424.0" y1="52.0" x2="424.0" y2="42.0" stroke-width="1.5"/><line x1="432.0" y1="52.0" x2="432.0" y2="42.0" stroke-width="1.5"/><line x1="440.0" y1="52.0" x2="440.0" y2="32.0" stroke-width="1.5"/><line x1="448.0" y1="52.0" x2="448.0" y2="42.0" stroke-width="1.5"/><line x1="456.0" y1="52.0" x2="456.0" y2="42.0" stroke-width="1.5"/><line x1="464.0" y1="52.0" x2="464.0" y2="42.0" stroke-width="1.5"/><line x1="472.0" y1="52.0" x2="472.0" y2="42.0" stroke-width="1.5"/><line x1="480.0" y1="52.0" x2="480.0" y2="22.0" stroke-width="2.5"/><line x1="488.0" y1="52.0" x2="488.0" y2="42.0" stroke-width="1.5"/><line x1="496.0" y1="52.0" x2="496.0" y2="42.0" stroke-width="1.5"/><line x1="504.0" y1="52.0" x2="504.0" y2="42.0" stroke-width="1.5"/><line x1="512.0" y1="52.0" x2="512.0" y2="42.0" stroke-width="1.5"/><line x1="520.0" y1="52.0" x2="520.0" y2="32.0" stroke-width="1.5"/><line x1="528.0" y1="52.0" x2="528.0" y2="42.0" stroke-width="1.5"/><line x1="536.0" y1="52.0" x2="536.0" y2="42.0" stroke-width="1.5"/><line x1="544.0" y1="52.0" x2="544.0" y2="42.0" stroke-width="1.5"/><line x1="552.0" y1="52.0" x2="552.0" y2="42.0" stroke-width="1.5"/><line x1="560.0" y1="52.0" x2="560.0" y2="22.0" stroke-width="2.5"/><line x1="568.0" y1="52.0" x2="568.0" y2="42.0" stroke-width="1.5"/><line x1="576.0" y1="52.0" x2="576.0" y2="42.0" stroke-width="1.5"/><line x1="584.0" y1="52.0" x2="584.0" y2="42.0" stroke-width="1.5"/><line x1="592.0" y1="52.0" x2="592.0" y2="42.0" stroke-width="1.5"/><line x1="600.0" y1="52.0" x2="600.0" y2="32.0" stroke-width="1.5"/><line x1="608.0" y1="52.0" x2="608.0" y2="42.0" stroke-width="1.5"/><line x1="616.0" y1="52.0" x2="616.0" y2="42.0" stroke-width="1.5"/><line x1="624.0" y1="52.0" x2="624.0" y2="42.0" stroke-width="1.5"/><line x1="632.0" y1="52.0" x2="632.0" y2="42.0" stroke-width="1.5"/><line x1="640.0" y1="52.0" x2="640.0" y2="22.0" stroke-width="2.5"/><line x1="648.0" y1="52.0" x2="648.0" y2="42.0" stroke-width="1.5"/><line x1="656.0" y1="52.0" x2="656.0" y2="42.0" stroke-width="1.5"/><line x1="664.0" y1="52.0" x2="664.0" y2="42.0" stroke-width="1.5"/><line x1="672.0" y1="52.0" x2="672.0" y2="42.0" stroke-width="1.5"/><line x1="680.0" y1="52.0" x2="680.0" y2="32.0" stroke-width="1.5"/><line x1="688.0" y1="52.0" x2="688.0" y2="42.0" stroke-width="1.5"/><line x1="696.0" y1="52.0" x2="696.0" y2="42.0" stroke-width="1.5"/><line x1="704.0" y1="52.0" x2="704.0" y2="42.0" stroke-width="1.5"/><line x1="712.0" y1="52.0" x2="712.0" y2="42.0" stroke-width="1.5"/><line x1="720.0" y1="52.0" x2="720.0" y2="22.0" stroke-width="2.5"/><line x1="728.0" y1="52.0" x2="728.0" y2="42.0" stroke-width="1.5"/><line x1="736.0" y1="52.0" x2="736.0" y2="42.0" stroke-width="1.5"/><line x1="744.0" y1="52.0" x2="744.0" y2="42.0" stroke-width="1.5"/><line x1="752.0" y1="52.0" x2="752.0" y2="42.0" stroke-width="1.5"/><line x1="760.0" y1="52.0" x2="760.0" y2="32.0" stroke-width="1.5"/><line x1="768.0" y1="52.0" x2="768.0" y2="42.0" stroke-width="1.5"/><line x1="776.0" y1="52.0" x2="776.0" y2="42.0" stroke-width="1.5"/><line x1="784.0" y1="52.0" x2="784.0" y2="42.0" stroke-width="1.5"/><line x1="792.0" y1="52.0" x2="792.0" y2="42.0" stroke-width="1.5"/><line x1="800.0" y1="52.0" x2="800.0" y2="22.0" stroke-width="2.5"/><line x1="808.0" y1="52.0" x2="808.0" y2="42.0" stroke-width="1.5"/><line x1="816.0" y1="52.0" x2="816.0" y2="42.0" stroke-width="1.5"/><line x1="824.0" y1="52.0" x2="824.0" y2="42.0" stroke-width="1.5"/><line x1="832.0" y1="52.0" x2="832.0" y2="42.0" stroke-width="1.5"/><line x1="840.0" y1="52.0" x2="840.0" y2="32.0" stroke-width="1.5"/><line x1="848.0" y1="52.0" x2="848.0" y2="42.0" stroke-width="1.5"/><line x1="856.0" y1="52.0" x2="856.0" y2="42.0" stroke-width="1.5"/><line x1="864.0" y1="52.0" x2="864.0" y2="42.0" stroke-width="1.5"/><line x1="872.0" y1="52.0" x2="872.0" y2="42.0" stroke-width="1.5"/><line x1="880.0" y1="52.0" x2="880.0" y2="22.0" stroke-width="2.5"/><line x1="888.0" y1="52.0" x2="888.0" y2="42.0" stroke-width="1.5"/><line x1="896.0" y1="52.0" x2="896.0" y2="42.0" stroke-width="1.5"/><line x1="904.0" y1="52.0" x2="904.0" y2="42.0" stroke-width="1.5"/><line x1="912.0" y1="52.0" x2="912.0" y2="42.0" stroke-width="1.5"/><line x1="920.0" y1="52.0" x2="920.0" y2="32.0" stroke-width="1.5"/><line x1="928.0" y1="52.0" x2="928.0" y2="42.0" stroke-width="1.5"/><line x1="936.0" y1="52.0" x2="936.0" y2="42.0" stroke-width="1.5"/><line x1="944.0" y1="52.0" x2="944.0" y2="42.0" stroke-width="1.5"/><line x1="952.0" y1="52.0" x2="952.0" y2="42.0" stroke-width="1.5"/><line x1="960.0" y1="52.0" x2="960.0" y2="22.0" stroke-width="2.5"/><line x1="968.0" y1="52.0" x2="968.0" y2="42.0" stroke-width="1.5"/><line x1="976.0" y1="52.0" x2="976.0" y2="42.0" stroke-width="1.5"/><line x1="984.0" y1="52.0" x2="984.0" y2="42.0" stroke-width="1.5"/><line x1="992.0" y1="52.0" x2="992.0" y2="42.0" stroke-width="1.5"/><line x1="1000.0" y1="52.0" x2="1000.0" y2="32.0" stroke-width="1.5"/><line x1="1008.0" y1="52.0" x2="1008.0" y2="42.0" stroke-width="1.5"/><line x1="1016.0" y1="52.0" x2="1016.0" y2="42.0" stroke-width="1.5"/><line x1="1024.0" y1="52.0" x2="1024.0" y2="42.0" stroke-width="1.5"/><line x1="1032.0" y1="52.0" x2="1032.0" y2="42.0" stroke-width="1.5"/><line x1="1040.0" y1="52.0" x2="1040.0" y2="22.0" stroke-width="2.5"/><line x1="1048.0" y1="52.0" x2="1048.0" y2="42.0" stroke-width="1.5"/><line x1="1056.0" y1="52.0" x2="1056.0" y2="42.0" stroke-width="1.5"/><line x1="1064.0" y1="52.0" x2="1064.0" y2="42.0" stroke-width="1.5"/><line x1="1072.0" y1="52.0" x2="1072.0" y2="42.0" stroke-width="1.5"/><line x1="1080.0" y1="52.0" x2="1080.0" y2="32.0" stroke-width="1.5"/><line x1="1088.0" y1="52.0" x2="1088.0" y2="42.0" stroke-width="1.5"/><line x1="1096.0" y1="52.0" x2="1096.0" y2="42.0" stroke-width="1.5"/><line x1="1104.0" y1="52.0" x2="1104.0" y2="42.0" stroke-width="1.5"/><line x1="1112.0" y1="52.0" x2="1112.0" y2="42.0" stroke-width="1.5"/><line x1="1120.0" y1="52.0" x2="1120.0" y2="22.0" stroke-width="2.5"/><line x1="1128.0" y1="52.0" x2="1128.0" y2="42.0" stroke-width="1.5"/><line x1="1136.0" y1="52.0" x2="1136.0" y2="42.0" stroke-width="1.5"/><line x1="1144.0" y1="52.0" x2="1144.0" y2="42.0" stroke-width="1.5"/><line x1="1152.0" y1="52.0" x2="1152.0" y2="42.0" stroke-width="1.5"/><line x1="1160.0" y1="52.0" x2="1160.0" y2="32.0" stroke-width="1.5"/><line x1="1168.0" y1="52.0" x2="1168.0" y2="42.0" stroke-width="1.5"/><line x1="1176.0" y1="52.0" x2="1176.0" y2="42.0" stroke-width="1.5"/><line x1="1184.0" y1="52.0" x2="1184.0" y2="42.0" stroke-width="1.5"/><line x1="1192.0" y1="52.0" x2="1192.0" y2="42.0" stroke-width="1.5"/><line x1="1200.0" y1="52.0" x2="1200.0" y2="22.0" stroke-width="2.5"/><line x1="1208.0" y1="52.0" x2="1208.0" y2="42.0" stroke-width="1.5"/><line x1="1216.0" y1="52.0" x2="1216.0" y2="42.0" stroke-width="1.5"/><line x1="1224.0" y1="52.0" x2="1224.0" y2="42.0" stroke-width="1.5"/><line x1="1232.0" y1="52.0" x2="1232.0" y2="42.0" stroke-width="1.5"/><line x1="1240.0" y1="52.0" x2="1240.0" y2="32.0" stroke-width="1.5"/><line x1="1248.0" y1="52.0" x2="1248.0" y2="42.0" stroke-width="1.5"/><line x1="1256.0" y1="52.0" x2="1256.0" y2="42.0" stroke-width="1.5"/><line x1="1264.0" y1="52.0" x2="1264.0" y2="42.0" stroke-width="1.5"/><line x1="1272.0" y1="52.0" x2="1272.0" y2="42.0" stroke-width="1.5"/><line x1="1280.0" y1="52.0" x2="1280.0" y2="22.0" stroke-width="2.5"/><line x1="1288.0" y1="52.0" x2="1288.0" y2="42.0" stroke-width="1.5"/><line x1="1296.0" y1="52.0" x2="1296.0" y2="42.0" stroke-width="1.5"/><line x1="1304.0" y1="52.0" x2="1304.0" y2="42.0" stroke-width="1.5"/><line x1="1312.0" y1="52.0" x2="1312.0" y2="42.0" stroke-width="1.5"/><line x1="1320.0" y1="52.0" x2="1320.0" y2="32.0" stroke-width="1.5"/><line x1="1328.0" y1="52.0" x2="1328.0" y2="42.0" stroke-width="1.5"/><line x1="1336.0" y1="52.0" x2="1336.0" y2="42.0" stroke-width="1.5"/><line x1="1344.0" y1="52.0" x2="1344.0" y2="42.0" stroke-width="1.5"/><line x1="1352.0" y1="52.0" x2="1352.0" y2="42.0" stroke-width="1.5"/><line x1="1360.0" y1="52.0" x2="1360.0" y2="22.0" stroke-width="2.5"/><line x1="1368.0" y1="52.0" x2="1368.0" y2="42.0" stroke-width="1.5"/><line x1="1376.0" y1="52.0" x2="1376.0" y2="42.0" stroke-width="1.5"/><line x1="1384.0" y1="52.0" x2="1384.0" y2="42.0" stroke-width="1.5"/><line x1="1392.0" y1="52.0" x2="1392.0" y2="42.0" stroke-width="1.5"/><line x1="1400.0" y1="52.0" x2="1400.0" y2="32.0" stroke-width="1.5"/><line x1="1408.0" y1="52.0" x2="1408.0" y2="42.0" stroke-width="1.5"/><line x1="1416.0" y1="52.0" x2="1416.0" y2="42.0" stroke-width="1.5"/><line x1="1424.0" y1="52.0" x2="1424.0" y2="42.0" stroke-width="1.5"/><line x1="1432.0" y1="52.0" x2="1432.0" y2="42.0" stroke-width="1.5"/><line x1="1440.0" y1="52.0" x2="1440.0" y2="22.0" stroke-width="2.5"/><line x1="1448.0" y1="52.0" x2="1448.0" y2="42.0" stroke-width="1.5"/><line x1="1456.0" y1="52.0" x2="1456.0" y2="42.0" stroke-width="1.5"/><line x1="1464.0" y1="52.0" x2="1464.0" y2="42.0" stroke-width="1.5"/><line x1="1472.0" y1="52.0" x2="1472.0" y2="42.0" stroke-width="1.5"/><line x1="1480.0" y1="52.0" x2="1480.0" y2="32.0" stroke-width="1.5"/><line x1="1488.0" y1="52.0" x2="1488.0" y2="42.0" stroke-width="1.5"/><line x1="1496.0" y1="52.0" x2="1496.0" y2="42.0" stroke-width="1.5"/><line x1="1504.0" y1="52.0" x2="1504.0" y2="42.0" stroke-width="1.5"/><line x1="1512.0" y1="52.0" x2="1512.0" y2="42.0" stroke-width="1.5"/><line x1="1520.0" y1="52.0" x2="1520.0" y2="22.0" stroke-width="2.5"/><line x1="1528.0" y1="52.0" x2="1528.0" y2="42.0" stroke-width="1.5"/><line x1="1536.0" y1="52.0" x2="1536.0" y2="42.0" stroke-width="1.5"/><line x1="1544.0" y1="52.0" x2="1544.0" y2="42.0" stroke-width="1.5"/><line x1="1552.0" y1="52.0" x2="1552.0" y2="42.0" stroke-width="1.5"/><line x1="1560.0" y1="52.0" x2="1560.0" y2="32.0" stroke-width="1.5"/><line x1="1568.0" y1="52.0" x2="1568.0" y2="42.0" stroke-width="1.5"/><line x1="1576.0" y1="52.0" x2="1576.0" y2="42.0" stroke-width="1.5"/><line x1="1584.0" y1="52.0" x2="1584.0" y2="42.0" stroke-width="1.5"/><line x1="1592.0" y1="52.0" x2="1592.0" y2="42.0" stroke-width="1.5"/><line x1="1600.0" y1="52.0" x2="1600.0" y2="22.0" stroke-width="2.5"/></g></symbol>
<symbol id="scale-v" viewBox="0 0 60 1600"><g stroke="currentColor" fill="none" stroke-linecap="butt"><line x1="52.0" y1="0.0" x2="52.0" y2="1600.0" stroke-width="2"/><line x1="52.0" y1="0.0" x2="22.0" y2="0.0" stroke-width="2.5"/><line x1="52.0" y1="8.0" x2="42.0" y2="8.0" stroke-width="1.5"/><line x1="52.0" y1="16.0" x2="42.0" y2="16.0" stroke-width="1.5"/><line x1="52.0" y1="24.0" x2="42.0" y2="24.0" stroke-width="1.5"/><line x1="52.0" y1="32.0" x2="42.0" y2="32.0" stroke-width="1.5"/><line x1="52.0" y1="40.0" x2="32.0" y2="40.0" stroke-width="1.5"/><line x1="52.0" y1="48.0" x2="42.0" y2="48.0" stroke-width="1.5"/><line x1="52.0" y1="56.0" x2="42.0" y2="56.0" stroke-width="1.5"/><line x1="52.0" y1="64.0" x2="42.0" y2="64.0" stroke-width="1.5"/><line x1="52.0" y1="72.0" x2="42.0" y2="72.0" stroke-width="1.5"/><line x1="52.0" y1="80.0" x2="22.0" y2="80.0" stroke-width="2.5"/><line x1="52.0" y1="88.0" x2="42.0" y2="88.0" stroke-width="1.5"/><line x1="52.0" y1="96.0" x2="42.0" y2="96.0" stroke-width="1.5"/><line x1="52.0" y1="104.0" x2="42.0" y2="104.0" stroke-width="1.5"/><line x1="52.0" y1="112.0" x2="42.0" y2="112.0" stroke-width="1.5"/><line x1="52.0" y1="120.0" x2="32.0" y2="120.0" stroke-width="1.5"/><line x1="52.0" y1="128.0" x2="42.0" y2="128.0" stroke-width="1.5"/><line x1="52.0" y1="136.0" x2="42.0" y2="136.0" stroke-width="1.5"/><line x1="52.0" y1="144.0" x2="42.0" y2="144.0" stroke-width="1.5"/><line x1="52.0" y1="152.0" x2="42.0" y2="152.0" stroke-width="1.5"/><line x1="52.0" y1="160.0" x2="22.0" y2="160.0" stroke-width="2.5"/><line x1="52.0" y1="168.0" x2="42.0" y2="168.0" stroke-width="1.5"/><line x1="52.0" y1="176.0" x2="42.0" y2="176.0" stroke-width="1.5"/><line x1="52.0" y1="184.0" x2="42.0" y2="184.0" stroke-width="1.5"/><line x1="52.0" y1="192.0" x2="42.0" y2="192.0" stroke-width="1.5"/><line x1="52.0" y1="200.0" x2="32.0" y2="200.0" stroke-width="1.5"/><line x1="52.0" y1="208.0" x2="42.0" y2="208.0" stroke-width="1.5"/><line x1="52.0" y1="216.0" x2="42.0" y2="216.0" stroke-width="1.5"/><line x1="52.0" y1="224.0" x2="42.0" y2="224.0" stroke-width="1.5"/><line x1="52.0" y1="232.0" x2="42.0" y2="232.0" stroke-width="1.5"/><line x1="52.0" y1="240.0" x2="22.0" y2="240.0" stroke-width="2.5"/><line x1="52.0" y1="248.0" x2="42.0" y2="248.0" stroke-width="1.5"/><line x1="52.0" y1="256.0" x2="42.0" y2="256.0" stroke-width="1.5"/><line x1="52.0" y1="264.0" x2="42.0" y2="264.0" stroke-width="1.5"/><line x1="52.0" y1="272.0" x2="42.0" y2="272.0" stroke-width="1.5"/><line x1="52.0" y1="280.0" x2="32.0" y2="280.0" stroke-width="1.5"/><line x1="52.0" y1="288.0" x2="42.0" y2="288.0" stroke-width="1.5"/><line x1="52.0" y1="296.0" x2="42.0" y2="296.0" stroke-width="1.5"/><line x1="52.0" y1="304.0" x2="42.0" y2="304.0" stroke-width="1.5"/><line x1="52.0" y1="312.0" x2="42.0" y2="312.0" stroke-width="1.5"/><line x1="52.0" y1="320.0" x2="22.0" y2="320.0" stroke-width="2.5"/><line x1="52.0" y1="328.0" x2="42.0" y2="328.0" stroke-width="1.5"/><line x1="52.0" y1="336.0" x2="42.0" y2="336.0" stroke-width="1.5"/><line x1="52.0" y1="344.0" x2="42.0" y2="344.0" stroke-width="1.5"/><line x1="52.0" y1="352.0" x2="42.0" y2="352.0" stroke-width="1.5"/><line x1="52.0" y1="360.0" x2="32.0" y2="360.0" stroke-width="1.5"/><line x1="52.0" y1="368.0" x2="42.0" y2="368.0" stroke-width="1.5"/><line x1="52.0" y1="376.0" x2="42.0" y2="376.0" stroke-width="1.5"/><line x1="52.0" y1="384.0" x2="42.0" y2="384.0" stroke-width="1.5"/><line x1="52.0" y1="392.0" x2="42.0" y2="392.0" stroke-width="1.5"/><line x1="52.0" y1="400.0" x2="22.0" y2="400.0" stroke-width="2.5"/><line x1="52.0" y1="408.0" x2="42.0" y2="408.0" stroke-width="1.5"/><line x1="52.0" y1="416.0" x2="42.0" y2="416.0" stroke-width="1.5"/><line x1="52.0" y1="424.0" x2="42.0" y2="424.0" stroke-width="1.5"/><line x1="52.0" y1="432.0" x2="42.0" y2="432.0" stroke-width="1.5"/><line x1="52.0" y1="440.0" x2="32.0" y2="440.0" stroke-width="1.5"/><line x1="52.0" y1="448.0" x2="42.0" y2="448.0" stroke-width="1.5"/><line x1="52.0" y1="456.0" x2="42.0" y2="456.0" stroke-width="1.5"/><line x1="52.0" y1="464.0" x2="42.0" y2="464.0" stroke-width="1.5"/><line x1="52.0" y1="472.0" x2="42.0" y2="472.0" stroke-width="1.5"/><line x1="52.0" y1="480.0" x2="22.0" y2="480.0" stroke-width="2.5"/><line x1="52.0" y1="488.0" x2="42.0" y2="488.0" stroke-width="1.5"/><line x1="52.0" y1="496.0" x2="42.0" y2="496.0" stroke-width="1.5"/><line x1="52.0" y1="504.0" x2="42.0" y2="504.0" stroke-width="1.5"/><line x1="52.0" y1="512.0" x2="42.0" y2="512.0" stroke-width="1.5"/><line x1="52.0" y1="520.0" x2="32.0" y2="520.0" stroke-width="1.5"/><line x1="52.0" y1="528.0" x2="42.0" y2="528.0" stroke-width="1.5"/><line x1="52.0" y1="536.0" x2="42.0" y2="536.0" stroke-width="1.5"/><line x1="52.0" y1="544.0" x2="42.0" y2="544.0" stroke-width="1.5"/><line x1="52.0" y1="552.0" x2="42.0" y2="552.0" stroke-width="1.5"/><line x1="52.0" y1="560.0" x2="22.0" y2="560.0" stroke-width="2.5"/><line x1="52.0" y1="568.0" x2="42.0" y2="568.0" stroke-width="1.5"/><line x1="52.0" y1="576.0" x2="42.0" y2="576.0" stroke-width="1.5"/><line x1="52.0" y1="584.0" x2="42.0" y2="584.0" stroke-width="1.5"/><line x1="52.0" y1="592.0" x2="42.0" y2="592.0" stroke-width="1.5"/><line x1="52.0" y1="600.0" x2="32.0" y2="600.0" stroke-width="1.5"/><line x1="52.0" y1="608.0" x2="42.0" y2="608.0" stroke-width="1.5"/><line x1="52.0" y1="616.0" x2="42.0" y2="616.0" stroke-width="1.5"/><line x1="52.0" y1="624.0" x2="42.0" y2="624.0" stroke-width="1.5"/><line x1="52.0" y1="632.0" x2="42.0" y2="632.0" stroke-width="1.5"/><line x1="52.0" y1="640.0" x2="22.0" y2="640.0" stroke-width="2.5"/><line x1="52.0" y1="648.0" x2="42.0" y2="648.0" stroke-width="1.5"/><line x1="52.0" y1="656.0" x2="42.0" y2="656.0" stroke-width="1.5"/><line x1="52.0" y1="664.0" x2="42.0" y2="664.0" stroke-width="1.5"/><line x1="52.0" y1="672.0" x2="42.0" y2="672.0" stroke-width="1.5"/><line x1="52.0" y1="680.0" x2="32.0" y2="680.0" stroke-width="1.5"/><line x1="52.0" y1="688.0" x2="42.0" y2="688.0" stroke-width="1.5"/><line x1="52.0" y1="696.0" x2="42.0" y2="696.0" stroke-width="1.5"/><line x1="52.0" y1="704.0" x2="42.0" y2="704.0" stroke-width="1.5"/><line x1="52.0" y1="712.0" x2="42.0" y2="712.0" stroke-width="1.5"/><line x1="52.0" y1="720.0" x2="22.0" y2="720.0" stroke-width="2.5"/><line x1="52.0" y1="728.0" x2="42.0" y2="728.0" stroke-width="1.5"/><line x1="52.0" y1="736.0" x2="42.0" y2="736.0" stroke-width="1.5"/><line x1="52.0" y1="744.0" x2="42.0" y2="744.0" stroke-width="1.5"/><line x1="52.0" y1="752.0" x2="42.0" y2="752.0" stroke-width="1.5"/><line x1="52.0" y1="760.0" x2="32.0" y2="760.0" stroke-width="1.5"/><line x1="52.0" y1="768.0" x2="42.0" y2="768.0" stroke-width="1.5"/><line x1="52.0" y1="776.0" x2="42.0" y2="776.0" stroke-width="1.5"/><line x1="52.0" y1="784.0" x2="42.0" y2="784.0" stroke-width="1.5"/><line x1="52.0" y1="792.0" x2="42.0" y2="792.0" stroke-width="1.5"/><line x1="52.0" y1="800.0" x2="22.0" y2="800.0" stroke-width="2.5"/><line x1="52.0" y1="808.0" x2="42.0" y2="808.0" stroke-width="1.5"/><line x1="52.0" y1="816.0" x2="42.0" y2="816.0" stroke-width="1.5"/><line x1="52.0" y1="824.0" x2="42.0" y2="824.0" stroke-width="1.5"/><line x1="52.0" y1="832.0" x2="42.0" y2="832.0" stroke-width="1.5"/><line x1="52.0" y1="840.0" x2="32.0" y2="840.0" stroke-width="1.5"/><line x1="52.0" y1="848.0" x2="42.0" y2="848.0" stroke-width="1.5"/><line x1="52.0" y1="856.0" x2="42.0" y2="856.0" stroke-width="1.5"/><line x1="52.0" y1="864.0" x2="42.0" y2="864.0" stroke-width="1.5"/><line x1="52.0" y1="872.0" x2="42.0" y2="872.0" stroke-width="1.5"/><line x1="52.0" y1="880.0" x2="22.0" y2="880.0" stroke-width="2.5"/><line x1="52.0" y1="888.0" x2="42.0" y2="888.0" stroke-width="1.5"/><line x1="52.0" y1="896.0" x2="42.0" y2="896.0" stroke-width="1.5"/><line x1="52.0" y1="904.0" x2="42.0" y2="904.0" stroke-width="1.5"/><line x1="52.0" y1="912.0" x2="42.0" y2="912.0" stroke-width="1.5"/><line x1="52.0" y1="920.0" x2="32.0" y2="920.0" stroke-width="1.5"/><line x1="52.0" y1="928.0" x2="42.0" y2="928.0" stroke-width="1.5"/><line x1="52.0" y1="936.0" x2="42.0" y2="936.0" stroke-width="1.5"/><line x1="52.0" y1="944.0" x2="42.0" y2="944.0" stroke-width="1.5"/><line x1="52.0" y1="952.0" x2="42.0" y2="952.0" stroke-width="1.5"/><line x1="52.0" y1="960.0" x2="22.0" y2="960.0" stroke-width="2.5"/><line x1="52.0" y1="968.0" x2="42.0" y2="968.0" stroke-width="1.5"/><line x1="52.0" y1="976.0" x2="42.0" y2="976.0" stroke-width="1.5"/><line x1="52.0" y1="984.0" x2="42.0" y2="984.0" stroke-width="1.5"/><line x1="52.0" y1="992.0" x2="42.0" y2="992.0" stroke-width="1.5"/><line x1="52.0" y1="1000.0" x2="32.0" y2="1000.0" stroke-width="1.5"/><line x1="52.0" y1="1008.0" x2="42.0" y2="1008.0" stroke-width="1.5"/><line x1="52.0" y1="1016.0" x2="42.0" y2="1016.0" stroke-width="1.5"/><line x1="52.0" y1="1024.0" x2="42.0" y2="1024.0" stroke-width="1.5"/><line x1="52.0" y1="1032.0" x2="42.0" y2="1032.0" stroke-width="1.5"/><line x1="52.0" y1="1040.0" x2="22.0" y2="1040.0" stroke-width="2.5"/><line x1="52.0" y1="1048.0" x2="42.0" y2="1048.0" stroke-width="1.5"/><line x1="52.0" y1="1056.0" x2="42.0" y2="1056.0" stroke-width="1.5"/><line x1="52.0" y1="1064.0" x2="42.0" y2="1064.0" stroke-width="1.5"/><line x1="52.0" y1="1072.0" x2="42.0" y2="1072.0" stroke-width="1.5"/><line x1="52.0" y1="1080.0" x2="32.0" y2="1080.0" stroke-width="1.5"/><line x1="52.0" y1="1088.0" x2="42.0" y2="1088.0" stroke-width="1.5"/><line x1="52.0" y1="1096.0" x2="42.0" y2="1096.0" stroke-width="1.5"/><line x1="52.0" y1="1104.0" x2="42.0" y2="1104.0" stroke-width="1.5"/><line x1="52.0" y1="1112.0" x2="42.0" y2="1112.0" stroke-width="1.5"/><line x1="52.0" y1="1120.0" x2="22.0" y2="1120.0" stroke-width="2.5"/><line x1="52.0" y1="1128.0" x2="42.0" y2="1128.0" stroke-width="1.5"/><line x1="52.0" y1="1136.0" x2="42.0" y2="1136.0" stroke-width="1.5"/><line x1="52.0" y1="1144.0" x2="42.0" y2="1144.0" stroke-width="1.5"/><line x1="52.0" y1="1152.0" x2="42.0" y2="1152.0" stroke-width="1.5"/><line x1="52.0" y1="1160.0" x2="32.0" y2="1160.0" stroke-width="1.5"/><line x1="52.0" y1="1168.0" x2="42.0" y2="1168.0" stroke-width="1.5"/><line x1="52.0" y1="1176.0" x2="42.0" y2="1176.0" stroke-width="1.5"/><line x1="52.0" y1="1184.0" x2="42.0" y2="1184.0" stroke-width="1.5"/><line x1="52.0" y1="1192.0" x2="42.0" y2="1192.0" stroke-width="1.5"/><line x1="52.0" y1="1200.0" x2="22.0" y2="1200.0" stroke-width="2.5"/><line x1="52.0" y1="1208.0" x2="42.0" y2="1208.0" stroke-width="1.5"/><line x1="52.0" y1="1216.0" x2="42.0" y2="1216.0" stroke-width="1.5"/><line x1="52.0" y1="1224.0" x2="42.0" y2="1224.0" stroke-width="1.5"/><line x1="52.0" y1="1232.0" x2="42.0" y2="1232.0" stroke-width="1.5"/><line x1="52.0" y1="1240.0" x2="32.0" y2="1240.0" stroke-width="1.5"/><line x1="52.0" y1="1248.0" x2="42.0" y2="1248.0" stroke-width="1.5"/><line x1="52.0" y1="1256.0" x2="42.0" y2="1256.0" stroke-width="1.5"/><line x1="52.0" y1="1264.0" x2="42.0" y2="1264.0" stroke-width="1.5"/><line x1="52.0" y1="1272.0" x2="42.0" y2="1272.0" stroke-width="1.5"/><line x1="52.0" y1="1280.0" x2="22.0" y2="1280.0" stroke-width="2.5"/><line x1="52.0" y1="1288.0" x2="42.0" y2="1288.0" stroke-width="1.5"/><line x1="52.0" y1="1296.0" x2="42.0" y2="1296.0" stroke-width="1.5"/><line x1="52.0" y1="1304.0" x2="42.0" y2="1304.0" stroke-width="1.5"/><line x1="52.0" y1="1312.0" x2="42.0" y2="1312.0" stroke-width="1.5"/><line x1="52.0" y1="1320.0" x2="32.0" y2="1320.0" stroke-width="1.5"/><line x1="52.0" y1="1328.0" x2="42.0" y2="1328.0" stroke-width="1.5"/><line x1="52.0" y1="1336.0" x2="42.0" y2="1336.0" stroke-width="1.5"/><line x1="52.0" y1="1344.0" x2="42.0" y2="1344.0" stroke-width="1.5"/><line x1="52.0" y1="1352.0" x2="42.0" y2="1352.0" stroke-width="1.5"/><line x1="52.0" y1="1360.0" x2="22.0" y2="1360.0" stroke-width="2.5"/><line x1="52.0" y1="1368.0" x2="42.0" y2="1368.0" stroke-width="1.5"/><line x1="52.0" y1="1376.0" x2="42.0" y2="1376.0" stroke-width="1.5"/><line x1="52.0" y1="1384.0" x2="42.0" y2="1384.0" stroke-width="1.5"/><line x1="52.0" y1="1392.0" x2="42.0" y2="1392.0" stroke-width="1.5"/><line x1="52.0" y1="1400.0" x2="32.0" y2="1400.0" stroke-width="1.5"/><line x1="52.0" y1="1408.0" x2="42.0" y2="1408.0" stroke-width="1.5"/><line x1="52.0" y1="1416.0" x2="42.0" y2="1416.0" stroke-width="1.5"/><line x1="52.0" y1="1424.0" x2="42.0" y2="1424.0" stroke-width="1.5"/><line x1="52.0" y1="1432.0" x2="42.0" y2="1432.0" stroke-width="1.5"/><line x1="52.0" y1="1440.0" x2="22.0" y2="1440.0" stroke-width="2.5"/><line x1="52.0" y1="1448.0" x2="42.0" y2="1448.0" stroke-width="1.5"/><line x1="52.0" y1="1456.0" x2="42.0" y2="1456.0" stroke-width="1.5"/><line x1="52.0" y1="1464.0" x2="42.0" y2="1464.0" stroke-width="1.5"/><line x1="52.0" y1="1472.0" x2="42.0" y2="1472.0" stroke-width="1.5"/><line x1="52.0" y1="1480.0" x2="32.0" y2="1480.0" stroke-width="1.5"/><line x1="52.0" y1="1488.0" x2="42.0" y2="1488.0" stroke-width="1.5"/><line x1="52.0" y1="1496.0" x2="42.0" y2="1496.0" stroke-width="1.5"/><line x1="52.0" y1="1504.0" x2="42.0" y2="1504.0" stroke-width="1.5"/><line x1="52.0" y1="1512.0" x2="42.0" y2="1512.0" stroke-width="1.5"/><line x1="52.0" y1="1520.0" x2="22.0" y2="1520.0" stroke-width="2.5"/><line x1="52.0" y1="1528.0" x2="42.0" y2="1528.0" stroke-width="1.5"/><line x1="52.0" y1="1536.0" x2="42.0" y2="1536.0" stroke-width="1.5"/><line x1="52.0" y1="1544.0" x2="42.0" y2="1544.0" stroke-width="1.5"/><line x1="52.0" y1="1552.0" x2="42.0" y2="1552.0" stroke-width="1.5"/><line x1="52.0" y1="1560.0" x2="32.0" y2="1560.0" stroke-width="1.5"/><line x1="52.0" y1="1568.0" x2="42.0" y2="1568.0" stroke-width="1.5"/><line x1="52.0" y1="1576.0" x2="42.0" y2="1576.0" stroke-width="1.5"/><line x1="52.0" y1="1584.0" x2="42.0" y2="1584.0" stroke-width="1.5"/><line x1="52.0" y1="1592.0" x2="42.0" y2="1592.0" stroke-width="1.5"/><line x1="52.0" y1="1600.0" x2="22.0" y2="1600.0" stroke-width="2.5"/></g></symbol>
<symbol id="arc-mm" viewBox="0 0 800 800"><g stroke="currentColor" fill="none" stroke-linecap="butt"><polyline points="183.4,735.2 183.8,731.7 184.2,728.2 184.6,724.7 185.0,721.2 185.5,717.7 186.0,714.2 186.5,710.8 187.0,707.3 187.5,703.8 188.1,700.3 188.6,696.9 189.2,693.4 189.8,689.9 190.5,686.5 191.1,683.0 191.8,679.6 192.5,676.1 193.2,672.7 193.9,669.2 194.7,665.8 195.5,662.4 196.3,658.9 197.1,655.5 197.9,652.1 198.7,648.7 199.6,645.3 200.5,641.9 201.4,638.5 202.3,635.1 203.3,631.7 204.2,628.3 205.2,624.9 206.2,621.6 207.2,618.2 208.3,614.9 209.3,611.5 210.4,608.2 211.5,604.8 212.6,601.5 213.8,598.1 214.9,594.8 216.1,591.5 217.3,588.2 218.5,584.9 219.7,581.6 221.0,578.3 222.3,575.0 223.5,571.8 224.8,568.5 226.2,565.2 227.5,562.0 228.9,558.7 230.2,555.5 231.6,552.3 233.1,549.1 234.5,545.8 235.9,542.6 237.4,539.4 238.9,536.3 240.4,533.1 241.9,529.9 243.5,526.8 245.0,523.6 246.6,520.5 248.2,517.3 249.8,514.2 251.4,511.1 253.1,508.0 254.7,504.9 256.4,501.8 258.1,498.7 259.8,495.6 261.6,492.6 263.3,489.5 265.1,486.5 266.9,483.5 268.7,480.4 270.5,477.4 272.4,474.4 274.2,471.5 276.1,468.5 278.0,465.5 279.9,462.6 281.8,459.6 283.7,456.7 285.7,453.7 287.7,450.8 289.7,447.9 291.7,445.0 293.7,442.2 295.7,439.3 297.8,436.4 299.8,433.6 301.9,430.8 304.0,428.0 306.2,425.1 308.3,422.4 310.4,419.6 312.6,416.8 314.8,414.0 317.0,411.3 319.2,408.6 321.4,405.8 323.7,403.1 325.9,400.4 328.2,397.8 330.5,395.1 332.8,392.4 335.1,389.8 337.4,387.2 339.8,384.5 342.2,381.9 344.5,379.3 346.9,376.8 349.3,374.2 351.8,371.7 354.2,369.1 356.6,366.6 359.1,364.1 361.6,361.6 364.1,359.1 366.6,356.6 369.1,354.2 371.7,351.8 374.2,349.3 376.8,346.9 379.3,344.5 381.9,342.2 384.5,339.8 387.2,337.4 389.8,335.1 392.4,332.8 395.1,330.5 397.8,328.2 400.4,325.9 403.1,323.7 405.8,321.4 408.6,319.2 411.3,317.0 414.0,314.8 416.8,312.6 419.6,310.4 422.4,308.3 425.1,306.2 428.0,304.0 430.8,301.9 433.6,299.8 436.4,297.8 439.3,295.7 442.2,293.7 445.0,291.7 447.9,289.7 450.8,287.7 453.7,285.7 456.7,283.7 459.6,281.8 462.6,279.9 465.5,278.0 468.5,276.1 471.5,274.2 474.4,272.4 477.4,270.5 480.4,268.7 483.5,266.9 486.5,265.1 489.5,263.3 492.6,261.6 495.6,259.8 498.7,258.1 501.8,256.4 504.9,254.7 508.0,253.1 511.1,251.4 514.2,249.8 517.3,248.2 520.5,246.6 523.6,245.0 526.8,243.5 529.9,241.9 533.1,240.4 536.3,238.9 539.4,237.4 542.6,235.9 545.8,234.5 549.1,233.1 552.3,231.6 555.5,230.2 558.7,228.9 562.0,227.5 565.2,226.2 568.5,224.8 571.8,223.5 575.0,222.3 578.3,221.0 581.6,219.7 584.9,218.5 588.2,217.3 591.5,216.1 594.8,214.9 598.1,213.8 601.5,212.6 604.8,211.5 608.2,210.4 611.5,209.3 614.9,208.3 618.2,207.2 621.6,206.2 624.9,205.2 628.3,204.2 631.7,203.3 635.1,202.3 638.5,201.4 641.9,200.5 645.3,199.6 648.7,198.7 652.1,197.9 655.5,197.1 658.9,196.3 662.4,195.5 665.8,194.7 669.2,193.9 672.7,193.2 676.1,192.5 679.6,191.8 683.0,191.1 686.5,190.5 689.9,189.8 693.4,189.2 696.9,188.6 700.3,188.1 703.8,187.5 707.3,187.0 710.8,186.5 714.2,186.0 717.7,185.5 721.2,185.0 724.7,184.6 728.2,184.2 731.7,183.8 735.2,183.4" stroke-width="2.5"/><line x1="191.4" y1="681.7" x2="156.1" y2="674.8" stroke-width="4"/><line x1="199.5" y1="645.8" x2="182.0" y2="641.3" stroke-width="2.5"/><line x1="209.7" y1="610.5" x2="192.5" y2="605.0" stroke-width="2.5"/><line x1="222.0" y1="575.8" x2="205.2" y2="569.3" stroke-width="2.5"/><line x1="236.3" y1="541.9" x2="219.9" y2="534.4" stroke-width="2.5"/><line x1="252.6" y1="508.9" x2="220.8" y2="492.0" stroke-width="4"/><line x1="270.8" y1="477.0" x2="255.4" y2="467.6" stroke-width="2.5"/><line x1="290.9" y1="446.2" x2="276.1" y2="435.9" stroke-width="2.5"/><line x1="312.8" y1="416.6" x2="298.6" y2="405.5" stroke-width="2.5"/><line x1="336.4" y1="388.4" x2="322.9" y2="376.4" stroke-width="2.5"/><line x1="361.6" y1="361.6" x2="336.1" y2="336.1" stroke-width="4"/><line x1="388.4" y1="336.4" x2="376.4" y2="322.9" stroke-width="2.5"/><line x1="416.6" y1="312.8" x2="405.5" y2="298.6" stroke-width="2.5"/><line x1="446.2" y1="290.9" x2="435.9" y2="276.1" stroke-width="2.5"/><line x1="477.0" y1="270.8" x2="467.6" y2="255.4" stroke-width="2.5"/><line x1="508.9" y1="252.6" x2="492.0" y2="220.8" stroke-width="4"/><line x1="541.9" y1="236.3" x2="534.4" y2="219.9" stroke-width="2.5"/><line x1="575.8" y1="222.0" x2="569.3" y2="205.2" stroke-width="2.5"/><line x1="610.5" y1="209.7" x2="605.0" y2="192.5" stroke-width="2.5"/><line x1="645.8" y1="199.5" x2="641.3" y2="182.0" stroke-width="2.5"/><line x1="681.7" y1="191.4" x2="674.8" y2="156.1" stroke-width="4"/></g><g fill="currentColor" font-family="JetBrains Mono, ui-monospace, monospace"><text x="108.9" y="665.7" font-size="46" font-weight="500" text-anchor="middle" dominant-baseline="central" transform="rotate(281.0 108.9 665.7)">14</text><text x="178.4" y="469.5" font-size="46" font-weight="500" text-anchor="middle" dominant-baseline="central" transform="rotate(298.0 178.4 469.5)">18</text><text x="302.2" y="302.2" font-size="46" font-weight="500" text-anchor="middle" dominant-baseline="central" transform="rotate(315.0 302.2 302.2)">25</text><text x="469.5" y="178.4" font-size="46" font-weight="500" text-anchor="middle" dominant-baseline="central" transform="rotate(332.0 469.5 178.4)">35</text><text x="665.7" y="108.9" font-size="46" font-weight="500" text-anchor="middle" dominant-baseline="central" transform="rotate(349.0 665.7 108.9)">42</text><text x="418.2" y="418.2" font-size="40" font-weight="500" text-anchor="middle" dominant-baseline="central">mm</text></g><g style="fill:var(--deco-accent,currentColor)" stroke="none"><circle cx="380.0" cy="380.0" r="9"/></g></symbol>
<symbol id="arc-f" viewBox="0 0 800 800"><g stroke="currentColor" fill="none" stroke-linecap="butt"><polyline points="183.4,735.2 183.8,731.7 184.2,728.2 184.6,724.7 185.0,721.2 185.5,717.7 186.0,714.2 186.5,710.8 187.0,707.3 187.5,703.8 188.1,700.3 188.6,696.9 189.2,693.4 189.8,689.9 190.5,686.5 191.1,683.0 191.8,679.6 192.5,676.1 193.2,672.7 193.9,669.2 194.7,665.8 195.5,662.4 196.3,658.9 197.1,655.5 197.9,652.1 198.7,648.7 199.6,645.3 200.5,641.9 201.4,638.5 202.3,635.1 203.3,631.7 204.2,628.3 205.2,624.9 206.2,621.6 207.2,618.2 208.3,614.9 209.3,611.5 210.4,608.2 211.5,604.8 212.6,601.5 213.8,598.1 214.9,594.8 216.1,591.5 217.3,588.2 218.5,584.9 219.7,581.6 221.0,578.3 222.3,575.0 223.5,571.8 224.8,568.5 226.2,565.2 227.5,562.0 228.9,558.7 230.2,555.5 231.6,552.3 233.1,549.1 234.5,545.8 235.9,542.6 237.4,539.4 238.9,536.3 240.4,533.1 241.9,529.9 243.5,526.8 245.0,523.6 246.6,520.5 248.2,517.3 249.8,514.2 251.4,511.1 253.1,508.0 254.7,504.9 256.4,501.8 258.1,498.7 259.8,495.6 261.6,492.6 263.3,489.5 265.1,486.5 266.9,483.5 268.7,480.4 270.5,477.4 272.4,474.4 274.2,471.5 276.1,468.5 278.0,465.5 279.9,462.6 281.8,459.6 283.7,456.7 285.7,453.7 287.7,450.8 289.7,447.9 291.7,445.0 293.7,442.2 295.7,439.3 297.8,436.4 299.8,433.6 301.9,430.8 304.0,428.0 306.2,425.1 308.3,422.4 310.4,419.6 312.6,416.8 314.8,414.0 317.0,411.3 319.2,408.6 321.4,405.8 323.7,403.1 325.9,400.4 328.2,397.8 330.5,395.1 332.8,392.4 335.1,389.8 337.4,387.2 339.8,384.5 342.2,381.9 344.5,379.3 346.9,376.8 349.3,374.2 351.8,371.7 354.2,369.1 356.6,366.6 359.1,364.1 361.6,361.6 364.1,359.1 366.6,356.6 369.1,354.2 371.7,351.8 374.2,349.3 376.8,346.9 379.3,344.5 381.9,342.2 384.5,339.8 387.2,337.4 389.8,335.1 392.4,332.8 395.1,330.5 397.8,328.2 400.4,325.9 403.1,323.7 405.8,321.4 408.6,319.2 411.3,317.0 414.0,314.8 416.8,312.6 419.6,310.4 422.4,308.3 425.1,306.2 428.0,304.0 430.8,301.9 433.6,299.8 436.4,297.8 439.3,295.7 442.2,293.7 445.0,291.7 447.9,289.7 450.8,287.7 453.7,285.7 456.7,283.7 459.6,281.8 462.6,279.9 465.5,278.0 468.5,276.1 471.5,274.2 474.4,272.4 477.4,270.5 480.4,268.7 483.5,266.9 486.5,265.1 489.5,263.3 492.6,261.6 495.6,259.8 498.7,258.1 501.8,256.4 504.9,254.7 508.0,253.1 511.1,251.4 514.2,249.8 517.3,248.2 520.5,246.6 523.6,245.0 526.8,243.5 529.9,241.9 533.1,240.4 536.3,238.9 539.4,237.4 542.6,235.9 545.8,234.5 549.1,233.1 552.3,231.6 555.5,230.2 558.7,228.9 562.0,227.5 565.2,226.2 568.5,224.8 571.8,223.5 575.0,222.3 578.3,221.0 581.6,219.7 584.9,218.5 588.2,217.3 591.5,216.1 594.8,214.9 598.1,213.8 601.5,212.6 604.8,211.5 608.2,210.4 611.5,209.3 614.9,208.3 618.2,207.2 621.6,206.2 624.9,205.2 628.3,204.2 631.7,203.3 635.1,202.3 638.5,201.4 641.9,200.5 645.3,199.6 648.7,198.7 652.1,197.9 655.5,197.1 658.9,196.3 662.4,195.5 665.8,194.7 669.2,193.9 672.7,193.2 676.1,192.5 679.6,191.8 683.0,191.1 686.5,190.5 689.9,189.8 693.4,189.2 696.9,188.6 700.3,188.1 703.8,187.5 707.3,187.0 710.8,186.5 714.2,186.0 717.7,185.5 721.2,185.0 724.7,184.6 728.2,184.2 731.7,183.8 735.2,183.4" stroke-width="2.5"/><line x1="191.4" y1="681.7" x2="156.1" y2="674.8" stroke-width="4"/><line x1="206.0" y1="622.2" x2="188.8" y2="617.0" stroke-width="2.5"/><line x1="226.5" y1="564.4" x2="193.2" y2="550.7" stroke-width="4"/><line x1="252.6" y1="508.9" x2="236.7" y2="500.5" stroke-width="2.5"/><line x1="284.0" y1="456.3" x2="254.0" y2="436.3" stroke-width="4"/><line x1="320.4" y1="407.0" x2="306.5" y2="395.6" stroke-width="2.5"/><line x1="361.6" y1="361.6" x2="336.1" y2="336.1" stroke-width="4"/><line x1="407.0" y1="320.4" x2="395.6" y2="306.5" stroke-width="2.5"/><line x1="456.3" y1="284.0" x2="436.3" y2="254.0" stroke-width="4"/><line x1="508.9" y1="252.6" x2="500.5" y2="236.7" stroke-width="2.5"/><line x1="564.4" y1="226.5" x2="550.7" y2="193.2" stroke-width="4"/><line x1="622.2" y1="206.0" x2="617.0" y2="188.8" stroke-width="2.5"/><line x1="681.7" y1="191.4" x2="674.8" y2="156.1" stroke-width="4"/></g><g fill="currentColor" font-family="JetBrains Mono, ui-monospace, monospace"><text x="108.9" y="665.7" font-size="46" font-weight="500" text-anchor="middle" dominant-baseline="central" transform="rotate(281.0 108.9 665.7)">3.5</text><text x="148.8" y="532.5" font-size="46" font-weight="500" text-anchor="middle" dominant-baseline="central" transform="rotate(292.3 148.8 532.5)">4</text><text x="214.1" y="409.7" font-size="46" font-weight="500" text-anchor="middle" dominant-baseline="central" transform="rotate(303.6 214.1 409.7)">5.6</text><text x="302.2" y="302.2" font-size="46" font-weight="500" text-anchor="middle" dominant-baseline="central" transform="rotate(315.0 302.2 302.2)">8</text><text x="409.7" y="214.1" font-size="46" font-weight="500" text-anchor="middle" dominant-baseline="central" transform="rotate(326.3 409.7 214.1)">11</text><text x="532.5" y="148.8" font-size="46" font-weight="500" text-anchor="middle" dominant-baseline="central" transform="rotate(337.6 532.5 148.8)">16</text><text x="665.7" y="108.9" font-size="46" font-weight="500" text-anchor="middle" dominant-baseline="central" transform="rotate(349.0 665.7 108.9)">22</text><text x="418.2" y="418.2" font-size="40" font-weight="500" text-anchor="middle" dominant-baseline="central">f/</text></g><g style="fill:var(--deco-accent,currentColor)" stroke="none"><circle cx="380.0" cy="380.0" r="9"/></g></symbol>
<symbol id="arc-m" viewBox="0 0 800 800"><g stroke="currentColor" fill="none" stroke-linecap="butt"><polyline points="183.4,735.2 183.8,731.7 184.2,728.2 184.6,724.7 185.0,721.2 185.5,717.7 186.0,714.2 186.5,710.8 187.0,707.3 187.5,703.8 188.1,700.3 188.6,696.9 189.2,693.4 189.8,689.9 190.5,686.5 191.1,683.0 191.8,679.6 192.5,676.1 193.2,672.7 193.9,669.2 194.7,665.8 195.5,662.4 196.3,658.9 197.1,655.5 197.9,652.1 198.7,648.7 199.6,645.3 200.5,641.9 201.4,638.5 202.3,635.1 203.3,631.7 204.2,628.3 205.2,624.9 206.2,621.6 207.2,618.2 208.3,614.9 209.3,611.5 210.4,608.2 211.5,604.8 212.6,601.5 213.8,598.1 214.9,594.8 216.1,591.5 217.3,588.2 218.5,584.9 219.7,581.6 221.0,578.3 222.3,575.0 223.5,571.8 224.8,568.5 226.2,565.2 227.5,562.0 228.9,558.7 230.2,555.5 231.6,552.3 233.1,549.1 234.5,545.8 235.9,542.6 237.4,539.4 238.9,536.3 240.4,533.1 241.9,529.9 243.5,526.8 245.0,523.6 246.6,520.5 248.2,517.3 249.8,514.2 251.4,511.1 253.1,508.0 254.7,504.9 256.4,501.8 258.1,498.7 259.8,495.6 261.6,492.6 263.3,489.5 265.1,486.5 266.9,483.5 268.7,480.4 270.5,477.4 272.4,474.4 274.2,471.5 276.1,468.5 278.0,465.5 279.9,462.6 281.8,459.6 283.7,456.7 285.7,453.7 287.7,450.8 289.7,447.9 291.7,445.0 293.7,442.2 295.7,439.3 297.8,436.4 299.8,433.6 301.9,430.8 304.0,428.0 306.2,425.1 308.3,422.4 310.4,419.6 312.6,416.8 314.8,414.0 317.0,411.3 319.2,408.6 321.4,405.8 323.7,403.1 325.9,400.4 328.2,397.8 330.5,395.1 332.8,392.4 335.1,389.8 337.4,387.2 339.8,384.5 342.2,381.9 344.5,379.3 346.9,376.8 349.3,374.2 351.8,371.7 354.2,369.1 356.6,366.6 359.1,364.1 361.6,361.6 364.1,359.1 366.6,356.6 369.1,354.2 371.7,351.8 374.2,349.3 376.8,346.9 379.3,344.5 381.9,342.2 384.5,339.8 387.2,337.4 389.8,335.1 392.4,332.8 395.1,330.5 397.8,328.2 400.4,325.9 403.1,323.7 405.8,321.4 408.6,319.2 411.3,317.0 414.0,314.8 416.8,312.6 419.6,310.4 422.4,308.3 425.1,306.2 428.0,304.0 430.8,301.9 433.6,299.8 436.4,297.8 439.3,295.7 442.2,293.7 445.0,291.7 447.9,289.7 450.8,287.7 453.7,285.7 456.7,283.7 459.6,281.8 462.6,279.9 465.5,278.0 468.5,276.1 471.5,274.2 474.4,272.4 477.4,270.5 480.4,268.7 483.5,266.9 486.5,265.1 489.5,263.3 492.6,261.6 495.6,259.8 498.7,258.1 501.8,256.4 504.9,254.7 508.0,253.1 511.1,251.4 514.2,249.8 517.3,248.2 520.5,246.6 523.6,245.0 526.8,243.5 529.9,241.9 533.1,240.4 536.3,238.9 539.4,237.4 542.6,235.9 545.8,234.5 549.1,233.1 552.3,231.6 555.5,230.2 558.7,228.9 562.0,227.5 565.2,226.2 568.5,224.8 571.8,223.5 575.0,222.3 578.3,221.0 581.6,219.7 584.9,218.5 588.2,217.3 591.5,216.1 594.8,214.9 598.1,213.8 601.5,212.6 604.8,211.5 608.2,210.4 611.5,209.3 614.9,208.3 618.2,207.2 621.6,206.2 624.9,205.2 628.3,204.2 631.7,203.3 635.1,202.3 638.5,201.4 641.9,200.5 645.3,199.6 648.7,198.7 652.1,197.9 655.5,197.1 658.9,196.3 662.4,195.5 665.8,194.7 669.2,193.9 672.7,193.2 676.1,192.5 679.6,191.8 683.0,191.1 686.5,190.5 689.9,189.8 693.4,189.2 696.9,188.6 700.3,188.1 703.8,187.5 707.3,187.0 710.8,186.5 714.2,186.0 717.7,185.5 721.2,185.0 724.7,184.6 728.2,184.2 731.7,183.8 735.2,183.4" stroke-width="2.5"/><line x1="191.4" y1="681.7" x2="156.1" y2="674.8" stroke-width="4"/><line x1="202.6" y1="634.0" x2="185.3" y2="629.1" stroke-width="2.5"/><line x1="217.6" y1="587.3" x2="200.7" y2="581.1" stroke-width="2.5"/><line x1="236.3" y1="541.9" x2="203.5" y2="526.9" stroke-width="4"/><line x1="258.4" y1="498.2" x2="242.7" y2="489.4" stroke-width="2.5"/><line x1="284.0" y1="456.3" x2="269.0" y2="446.3" stroke-width="2.5"/><line x1="312.8" y1="416.6" x2="284.5" y2="394.3" stroke-width="4"/><line x1="344.6" y1="379.3" x2="331.4" y2="367.1" stroke-width="2.5"/><line x1="379.3" y1="344.6" x2="367.1" y2="331.4" stroke-width="2.5"/><line x1="416.6" y1="312.8" x2="394.3" y2="284.5" stroke-width="4"/><line x1="456.3" y1="284.0" x2="446.3" y2="269.0" stroke-width="2.5"/><line x1="498.2" y1="258.4" x2="489.4" y2="242.7" stroke-width="2.5"/><line x1="541.9" y1="236.3" x2="526.9" y2="203.5" stroke-width="4"/><line x1="587.3" y1="217.6" x2="581.1" y2="200.7" stroke-width="2.5"/><line x1="634.0" y1="202.6" x2="629.1" y2="185.3" stroke-width="2.5"/><line x1="681.7" y1="191.4" x2="674.8" y2="156.1" stroke-width="4"/></g><g fill="currentColor" font-family="JetBrains Mono, ui-monospace, monospace"><text x="108.9" y="665.7" font-size="46" font-weight="500" text-anchor="middle" dominant-baseline="central" transform="rotate(281.0 108.9 665.7)">0.2</text><text x="159.9" y="506.9" font-size="46" font-weight="500" text-anchor="middle" dominant-baseline="central" transform="rotate(294.6 159.9 506.9)">0.3</text><text x="246.8" y="364.6" font-size="46" font-weight="500" text-anchor="middle" dominant-baseline="central" transform="rotate(308.2 246.8 364.6)">0.5</text><text x="364.6" y="246.8" font-size="46" font-weight="500" text-anchor="middle" dominant-baseline="central" transform="rotate(321.8 364.6 246.8)">1</text><text x="506.9" y="159.9" font-size="46" font-weight="500" text-anchor="middle" dominant-baseline="central" transform="rotate(335.4 506.9 159.9)">2</text><text x="665.7" y="108.9" font-size="46" font-weight="500" text-anchor="middle" dominant-baseline="central" transform="rotate(349.0 665.7 108.9)">∞</text><text x="466.1" y="375.6" font-size="40" font-weight="500" text-anchor="middle" dominant-baseline="central">m</text></g><g style="fill:var(--deco-accent,currentColor)" stroke="none"><circle cx="432.7" cy="333.2" r="9"/></g></symbol>
<symbol id="ring" viewBox="0 0 700 700"><g stroke="currentColor" fill="none" stroke-linecap="butt"><circle cx="350" cy="350" r="290" stroke-width="2.5"/><line x1="350.0" y1="60.0" x2="350.0" y2="16.0" stroke-width="5"/><line x1="365.2" y1="60.4" x2="366.0" y2="44.4" stroke-width="2.5"/><line x1="380.3" y1="61.6" x2="382.0" y2="45.7" stroke-width="2.5"/><line x1="395.4" y1="63.6" x2="397.9" y2="47.8" stroke-width="2.5"/><line x1="410.3" y1="66.3" x2="413.6" y2="50.7" stroke-width="2.5"/><line x1="425.1" y1="69.9" x2="432.8" y2="40.9" stroke-width="2.5"/><line x1="439.6" y1="74.2" x2="444.6" y2="59.0" stroke-width="2.5"/><line x1="453.9" y1="79.3" x2="459.7" y2="64.3" stroke-width="2.5"/><line x1="468.0" y1="85.1" x2="474.5" y2="70.5" stroke-width="2.5"/><line x1="481.7" y1="91.6" x2="488.9" y2="77.4" stroke-width="2.5"/><line x1="495.0" y1="98.9" x2="517.0" y2="60.7" stroke-width="5"/><line x1="507.9" y1="106.8" x2="516.7" y2="93.4" stroke-width="2.5"/><line x1="520.5" y1="115.4" x2="529.9" y2="102.4" stroke-width="2.5"/><line x1="532.5" y1="124.6" x2="542.6" y2="112.2" stroke-width="2.5"/><line x1="544.0" y1="134.5" x2="554.8" y2="122.6" stroke-width="2.5"/><line x1="555.1" y1="144.9" x2="576.3" y2="123.7" stroke-width="2.5"/><line x1="565.5" y1="156.0" x2="577.4" y2="145.2" stroke-width="2.5"/><line x1="575.4" y1="167.5" x2="587.8" y2="157.4" stroke-width="2.5"/><line x1="584.6" y1="179.5" x2="597.6" y2="170.1" stroke-width="2.5"/><line x1="593.2" y1="192.1" x2="606.6" y2="183.3" stroke-width="2.5"/><line x1="601.1" y1="205.0" x2="639.3" y2="183.0" stroke-width="5"/><line x1="608.4" y1="218.3" x2="622.6" y2="211.1" stroke-width="2.5"/><line x1="614.9" y1="232.0" x2="629.5" y2="225.5" stroke-width="2.5"/><line x1="620.7" y1="246.1" x2="635.7" y2="240.3" stroke-width="2.5"/><line x1="625.8" y1="260.4" x2="641.0" y2="255.4" stroke-width="2.5"/><line x1="630.1" y1="274.9" x2="659.1" y2="267.2" stroke-width="2.5"/><line x1="633.7" y1="289.7" x2="649.3" y2="286.4" stroke-width="2.5"/><line x1="636.4" y1="304.6" x2="652.2" y2="302.1" stroke-width="2.5"/><line x1="638.4" y1="319.7" x2="654.3" y2="318.0" stroke-width="2.5"/><line x1="639.6" y1="334.8" x2="655.6" y2="334.0" stroke-width="2.5"/><line x1="640.0" y1="350.0" x2="684.0" y2="350.0" stroke-width="5"/><line x1="639.6" y1="365.2" x2="655.6" y2="366.0" stroke-width="2.5"/><line x1="638.4" y1="380.3" x2="654.3" y2="382.0" stroke-width="2.5"/><line x1="636.4" y1="395.4" x2="652.2" y2="397.9" stroke-width="2.5"/><line x1="633.7" y1="410.3" x2="649.3" y2="413.6" stroke-width="2.5"/><line x1="630.1" y1="425.1" x2="659.1" y2="432.8" stroke-width="2.5"/><line x1="625.8" y1="439.6" x2="641.0" y2="444.6" stroke-width="2.5"/><line x1="620.7" y1="453.9" x2="635.7" y2="459.7" stroke-width="2.5"/><line x1="614.9" y1="468.0" x2="629.5" y2="474.5" stroke-width="2.5"/><line x1="608.4" y1="481.7" x2="622.6" y2="488.9" stroke-width="2.5"/><line x1="601.1" y1="495.0" x2="639.3" y2="517.0" stroke-width="5"/><line x1="593.2" y1="507.9" x2="606.6" y2="516.7" stroke-width="2.5"/><line x1="584.6" y1="520.5" x2="597.6" y2="529.9" stroke-width="2.5"/><line x1="575.4" y1="532.5" x2="587.8" y2="542.6" stroke-width="2.5"/><line x1="565.5" y1="544.0" x2="577.4" y2="554.8" stroke-width="2.5"/><line x1="555.1" y1="555.1" x2="576.3" y2="576.3" stroke-width="2.5"/><line x1="544.0" y1="565.5" x2="554.8" y2="577.4" stroke-width="2.5"/><line x1="532.5" y1="575.4" x2="542.6" y2="587.8" stroke-width="2.5"/><line x1="520.5" y1="584.6" x2="529.9" y2="597.6" stroke-width="2.5"/><line x1="507.9" y1="593.2" x2="516.7" y2="606.6" stroke-width="2.5"/><line x1="495.0" y1="601.1" x2="517.0" y2="639.3" stroke-width="5"/><line x1="481.7" y1="608.4" x2="488.9" y2="622.6" stroke-width="2.5"/><line x1="468.0" y1="614.9" x2="474.5" y2="629.5" stroke-width="2.5"/><line x1="453.9" y1="620.7" x2="459.7" y2="635.7" stroke-width="2.5"/><line x1="439.6" y1="625.8" x2="444.6" y2="641.0" stroke-width="2.5"/><line x1="425.1" y1="630.1" x2="432.8" y2="659.1" stroke-width="2.5"/><line x1="410.3" y1="633.7" x2="413.6" y2="649.3" stroke-width="2.5"/><line x1="395.4" y1="636.4" x2="397.9" y2="652.2" stroke-width="2.5"/><line x1="380.3" y1="638.4" x2="382.0" y2="654.3" stroke-width="2.5"/><line x1="365.2" y1="639.6" x2="366.0" y2="655.6" stroke-width="2.5"/><line x1="350.0" y1="640.0" x2="350.0" y2="684.0" stroke-width="5"/><line x1="334.8" y1="639.6" x2="334.0" y2="655.6" stroke-width="2.5"/><line x1="319.7" y1="638.4" x2="318.0" y2="654.3" stroke-width="2.5"/><line x1="304.6" y1="636.4" x2="302.1" y2="652.2" stroke-width="2.5"/><line x1="289.7" y1="633.7" x2="286.4" y2="649.3" stroke-width="2.5"/><line x1="274.9" y1="630.1" x2="267.2" y2="659.1" stroke-width="2.5"/><line x1="260.4" y1="625.8" x2="255.4" y2="641.0" stroke-width="2.5"/><line x1="246.1" y1="620.7" x2="240.3" y2="635.7" stroke-width="2.5"/><line x1="232.0" y1="614.9" x2="225.5" y2="629.5" stroke-width="2.5"/><line x1="218.3" y1="608.4" x2="211.1" y2="622.6" stroke-width="2.5"/><line x1="205.0" y1="601.1" x2="183.0" y2="639.3" stroke-width="5"/><line x1="192.1" y1="593.2" x2="183.3" y2="606.6" stroke-width="2.5"/><line x1="179.5" y1="584.6" x2="170.1" y2="597.6" stroke-width="2.5"/><line x1="167.5" y1="575.4" x2="157.4" y2="587.8" stroke-width="2.5"/><line x1="156.0" y1="565.5" x2="145.2" y2="577.4" stroke-width="2.5"/><line x1="144.9" y1="555.1" x2="123.7" y2="576.3" stroke-width="2.5"/><line x1="134.5" y1="544.0" x2="122.6" y2="554.8" stroke-width="2.5"/><line x1="124.6" y1="532.5" x2="112.2" y2="542.6" stroke-width="2.5"/><line x1="115.4" y1="520.5" x2="102.4" y2="529.9" stroke-width="2.5"/><line x1="106.8" y1="507.9" x2="93.4" y2="516.7" stroke-width="2.5"/><line x1="98.9" y1="495.0" x2="60.7" y2="517.0" stroke-width="5"/><line x1="91.6" y1="481.7" x2="77.4" y2="488.9" stroke-width="2.5"/><line x1="85.1" y1="468.0" x2="70.5" y2="474.5" stroke-width="2.5"/><line x1="79.3" y1="453.9" x2="64.3" y2="459.7" stroke-width="2.5"/><line x1="74.2" y1="439.6" x2="59.0" y2="444.6" stroke-width="2.5"/><line x1="69.9" y1="425.1" x2="40.9" y2="432.8" stroke-width="2.5"/><line x1="66.3" y1="410.3" x2="50.7" y2="413.6" stroke-width="2.5"/><line x1="63.6" y1="395.4" x2="47.8" y2="397.9" stroke-width="2.5"/><line x1="61.6" y1="380.3" x2="45.7" y2="382.0" stroke-width="2.5"/><line x1="60.4" y1="365.2" x2="44.4" y2="366.0" stroke-width="2.5"/><line x1="60.0" y1="350.0" x2="16.0" y2="350.0" stroke-width="5"/><line x1="60.4" y1="334.8" x2="44.4" y2="334.0" stroke-width="2.5"/><line x1="61.6" y1="319.7" x2="45.7" y2="318.0" stroke-width="2.5"/><line x1="63.6" y1="304.6" x2="47.8" y2="302.1" stroke-width="2.5"/><line x1="66.3" y1="289.7" x2="50.7" y2="286.4" stroke-width="2.5"/><line x1="69.9" y1="274.9" x2="40.9" y2="267.2" stroke-width="2.5"/><line x1="74.2" y1="260.4" x2="59.0" y2="255.4" stroke-width="2.5"/><line x1="79.3" y1="246.1" x2="64.3" y2="240.3" stroke-width="2.5"/><line x1="85.1" y1="232.0" x2="70.5" y2="225.5" stroke-width="2.5"/><line x1="91.6" y1="218.3" x2="77.4" y2="211.1" stroke-width="2.5"/><line x1="98.9" y1="205.0" x2="60.7" y2="183.0" stroke-width="5"/><line x1="106.8" y1="192.1" x2="93.4" y2="183.3" stroke-width="2.5"/><line x1="115.4" y1="179.5" x2="102.4" y2="170.1" stroke-width="2.5"/><line x1="124.6" y1="167.5" x2="112.2" y2="157.4" stroke-width="2.5"/><line x1="134.5" y1="156.0" x2="122.6" y2="145.2" stroke-width="2.5"/><line x1="144.9" y1="144.9" x2="123.7" y2="123.7" stroke-width="2.5"/><line x1="156.0" y1="134.5" x2="145.2" y2="122.6" stroke-width="2.5"/><line x1="167.5" y1="124.6" x2="157.4" y2="112.2" stroke-width="2.5"/><line x1="179.5" y1="115.4" x2="170.1" y2="102.4" stroke-width="2.5"/><line x1="192.1" y1="106.8" x2="183.3" y2="93.4" stroke-width="2.5"/><line x1="205.0" y1="98.9" x2="183.0" y2="60.7" stroke-width="5"/><line x1="218.3" y1="91.6" x2="211.1" y2="77.4" stroke-width="2.5"/><line x1="232.0" y1="85.1" x2="225.5" y2="70.5" stroke-width="2.5"/><line x1="246.1" y1="79.3" x2="240.3" y2="64.3" stroke-width="2.5"/><line x1="260.4" y1="74.2" x2="255.4" y2="59.0" stroke-width="2.5"/><line x1="274.9" y1="69.9" x2="267.2" y2="40.9" stroke-width="2.5"/><line x1="289.7" y1="66.3" x2="286.4" y2="50.7" stroke-width="2.5"/><line x1="304.6" y1="63.6" x2="302.1" y2="47.8" stroke-width="2.5"/><line x1="319.7" y1="61.6" x2="318.0" y2="45.7" stroke-width="2.5"/><line x1="334.8" y1="60.4" x2="334.0" y2="44.4" stroke-width="2.5"/></g><g style="fill:var(--deco-accent,currentColor)" stroke="none"><path d="M337 70 H363 L350 86.9 Z"/></g></symbol>
<symbol id="histo" viewBox="0 0 420 240"><g stroke="currentColor" fill="none" stroke-linecap="butt"><rect x="3" y="3" width="414" height="234" rx="14" stroke-width="3"/><line x1="105.0" y1="20.0" x2="105.0" y2="220.0" stroke-width="1.5"/><line x1="210.0" y1="20.0" x2="210.0" y2="220.0" stroke-width="1.5"/><line x1="315.0" y1="20.0" x2="315.0" y2="220.0" stroke-width="1.5"/><polyline points="24.0,205.1 28.6,205.0 33.3,204.9 38.0,204.8 42.6,204.6 47.2,204.3 51.9,203.9 56.5,203.4 61.2,202.6 65.8,201.6 70.5,200.3 75.2,198.6 79.8,196.5 84.5,193.8 89.1,190.4 93.8,186.3 98.4,181.5 103.0,175.8 107.7,169.2 112.3,161.8 117.0,153.5 121.7,144.6 126.3,135.1 130.9,125.2 135.6,115.2 140.2,105.3 144.9,95.9 149.6,87.2 154.2,79.6 158.8,73.3 163.5,68.6 168.2,65.8 172.8,64.8 177.4,65.8 182.1,68.6 186.8,73.3 191.4,79.6 196.1,87.2 200.7,95.9 205.3,105.3 210.0,115.2 214.6,125.2 219.3,135.1 223.9,144.6 228.6,153.5 233.2,161.8 237.9,169.2 242.6,175.7 247.2,181.4 251.9,186.1 256.5,189.8 261.1,192.6 265.8,194.1 270.4,194.1 275.1,192.4 279.8,188.4 284.4,182.2 289.1,173.5 293.7,163.1 298.4,152.0 303.0,141.7 307.6,133.8 312.3,129.7 316.9,130.3 321.6,135.4 326.2,144.2 330.9,155.1 335.6,166.7 340.2,177.4 344.9,186.3 349.5,193.2 354.1,198.0 358.8,201.2 363.4,203.1 368.1,204.2 372.8,204.7 377.4,205.0 382.1,205.1 386.7,205.2 391.4,205.2 396.0,205.2" stroke-width="3.5"/><line x1="24.0" y1="216.0" x2="396.0" y2="216.0" stroke-width="2"/></g></symbol>
</svg>